#!OML:ASF X:\für Bonn\!DataBase\2005_08_11_Bastian_Final\c3d\Bastian.ASF
:FULLY-SPECIFIED
:DEGREES
107
root -13.9054 17.3278 -14.6975 172.876 129.177 -552.618
lowerback 16.0903 2.2483 4.27015
upperback 6.7906 3.80221 0.7734
thorax -1.55853 2.04051 -2.23643
lowerneck -11.5975 4.04643 -5.90109
upperneck -5.98028 6.23516 -2.10111
head -0.0734326 3.30134 0.514914
rclavicle 3.00165e-014 -2.74323e-014
rhumerus -22.808 42.4182 -88.7211
rradius 107.039
rwrist 4.52908
rhand -17.9538 18.5008
rfingers 7.12502
rthumb 8.31489 -11.3155
lclavicle 3.00165e-014 -2.74323e-014
lhumerus -48.4301 -11.1548 76.3146
lradius 75.7264
lwrist 202.123
lhand -20.1015 7.92447
lfingers 7.12502
lthumb 6.24181 37.8125
rfemur 4.42846 0.0730455 31.318
rtibia 28.8183
rfoot -20.3395 1.47567
rtoes -11.2183
lfemur -44.0241 0.799747 -17.6857
ltibia 66.6836
lfoot -8.84698 -6.881
ltoes -33.7317
108
root -13.6673 17.4111 -14.4691 172.834 128.653 -552.745
lowerback 15.5877 2.34989 3.97532
upperback 6.62856 3.86655 0.769173
thorax -1.48169 2.06394 -2.06447
lowerneck -11.328 4.00275 -5.95136
upperneck -5.8153 6.16306 -1.94769
head -0.0693036 3.26083 0.564612
rclavicle -1.55847e-013 5.20816e-014
rhumerus -24.1596 42.1795 -89.4088
rradius 107.607
rwrist 5.19783
rhand -17.864 18.4889
rfingers 7.12502
rthumb 8.40156 -11.324
lclavicle -1.55847e-013 5.20816e-014
lhumerus -49.0423 -11.474 76.0544
lradius 76.3577
lwrist 203.079
lhand -20.6147 7.55632
lfingers 7.12502
lthumb 5.74632 37.4584
rfemur 5.9 0.0254478 31.4152
rtibia 27.6588
rfoot -18.2602 1.79239
rtoes -12.7279
lfemur -43.3843 0.84069 -18.3619
ltibia 62.8151
lfoot -9.70027 -6.7061
ltoes -34.5229
109
root -13.4265 17.4819 -14.2396 172.798 128.123 -552.959
lowerback 14.9403 2.44352 3.71037
upperback 6.50596 3.92113 0.77566
thorax -1.28487 2.08636 -1.88623
lowerneck -11.1981 3.95992 -5.95353
upperneck -5.61892 6.0984 -1.81309
head -0.030942 3.22188 0.605602
rclavicle -4.94974e-014 4.77083e-015
rhumerus -25.4394 41.8544 -90.0626
rradius 107.848
rwrist 5.97921
rhand -17.791 18.6165
rfingers 7.12502
rthumb 8.47207 -11.1936
lclavicle -4.94974e-014 4.77083e-015
lhumerus -49.5271 -11.7517 75.8277
lradius 76.9561
lwrist 204.008
lhand -21.053 7.35078
lfingers 7.12502
lthumb 5.3232 37.2639
rfemur 7.02829 -0.347708 31.4565
rtibia 26.9442
rfoot -16.172 2.38816
rtoes -14.7577
lfemur -42.7122 0.864939 -18.9554
ltibia 58.8848
lfoot -10.4937 -6.928
ltoes -34.6209
110
root -13.1784 17.5467 -14.0103 172.693 127.575 -553.309
lowerback 14.1658 2.50188 3.57877
upperback 6.40265 3.9441 0.770579
thorax -0.990022 2.09762 -1.78115
lowerneck -11.0724 3.91367 -5.91274
upperneck -5.45083 6.02415 -1.68265
head 0.000841311 3.1785 0.637543
rclavicle -3.45885e-014 1.82882e-014
rhumerus -26.6815 41.462 -90.7283
rradius 107.845
rwrist 6.67735
rhand -17.6415 18.8505
rfingers 7.12502
rthumb 8.61627 -10.9537
lclavicle -3.45885e-014 1.82882e-014
lhumerus -49.9544 -12.0136 75.5791
lradius 77.5293
lwrist 204.937
lhand -21.4207 7.35022
lfingers 7.12502
lthumb 4.96813 37.272
rfemur 7.85468 -1.0839 31.4411
rtibia 26.6629
rfoot -14.1724 3.23442
rtoes -17.1274
lfemur -42.0084 0.823767 -19.4458
ltibia 54.985
lfoot -11.2323 -7.44454
ltoes -34.2421
111
root -12.9198 17.6075 -13.7806 172.563 127.03 -553.67
lowerback 13.2711 2.54847 3.50565
upperback 6.34554 3.95547 0.757224
thorax -0.576169 2.10724 -1.70649
lowerneck -10.9389 3.86975 -5.87073
upperneck -5.28819 5.95199 -1.56367
head 0.0299793 3.13641 0.665443
rclavicle 2.44505e-014 6.75868e-015
rhumerus -27.9511 41.0843 -91.3793
rradius 107.598
rwrist 7.26702
rhand -17.5404 19.0526
rfingers 7.12502
rthumb 8.71387 -10.7475
lclavicle 2.44505e-014 6.75868e-015
lhumerus -50.3945 -12.2268 75.3836
lradius 78.1001
lwrist 205.816
lhand -21.69 7.64618
lfingers 7.12502
lthumb 4.70808 37.5739
rfemur 8.44288 -2.15633 31.2658
rtibia 26.8438
rfoot -12.3566 4.3515
rtoes -19.7092
lfemur -41.1997 0.781636 -19.9547
ltibia 51.1896
lfoot -11.9339 -8.16288
ltoes -33.6497
112
root -12.6587 17.6561 -13.5522 172.223 126.507 -554.101
lowerback 12.4916 2.56888 3.51057
upperback 6.32065 3.94803 0.735702
thorax -0.182777 2.10965 -1.68649
lowerneck -10.7318 3.8507 -5.84167
upperneck -5.13339 5.9082 -1.39311
head 0.0422279 3.10939 0.710082
rclavicle -1.05356e-014 2.38542e-014
rhumerus -29.3205 40.6855 -92.0879
rradius 107.077
rwrist 7.67106
rhand -17.4405 19.2474
rfingers 7.12502
rthumb 8.8103 -10.5487
lclavicle -1.05356e-014 2.38542e-014
lhumerus -50.8628 -12.3807 75.1855
lradius 78.6673
lwrist 206.617
lhand -21.9274 8.19439
lfingers 7.12502
lthumb 4.4789 38.127
rfemur 8.95663 -3.34553 31.0483
rtibia 27.4821
rfoot -10.7713 5.52406
rtoes -22.37
lfemur -40.1629 0.798066 -20.4305
ltibia 47.5718
lfoot -12.509 -9.12617
ltoes -33.0648
113
root -12.3992 17.6898 -13.3258 171.817 125.987 -554.465
lowerback 11.8096 2.57156 3.50592
upperback 6.34359 3.92073 0.674525
thorax 0.211005 2.10386 -1.7038
lowerneck -10.4153 3.83101 -5.78571
upperneck -5.08987 5.85144 -1.21269
head 0.00250035 3.0794 0.747712
rclavicle -3.04141e-014 -8.74653e-015
rhumerus -30.6492 40.2723 -92.8067
rradius 106.289
rwrist 7.82293
rhand -17.3299 19.4198
rfingers 7.12502
rthumb 8.91696 -10.3718
lclavicle -3.04141e-014 -8.74653e-015
lhumerus -51.2849 -12.5016 74.9949
lradius 79.2051
lwrist 207.319
lhand -22.1052 8.92653
lfingers 7.12502
lthumb 4.3072 38.8627
rfemur 9.33023 -4.4652 30.7722
rtibia 28.6125
rfoot -9.34846 6.5258
rtoes -25.3458
lfemur -38.9617 0.922994 -20.9944
ltibia 44.1751
lfoot -13.1005 -10.224
ltoes -33.786
